# Blender v2.64 (sub 0) OBJ File: ''
# www.blender.org
mtllib tunnel.mtl
o Cube
v 24.999989 -2.500000 -2.499999
v 24.999989 -2.500000 2.499999
v -24.999992 -2.500000 2.499998
v -24.999979 -2.500000 -2.500000
v 25.000000 2.500000 -2.499997
v 24.999971 2.500000 2.500000
v -24.999998 2.500000 2.499998
v -24.999987 2.500000 -2.499999
vn 0.000000 1.000000 0.000000
vn 0.000000 -1.000000 0.000000
vn 0.000000 0.000000 -1.000000
vn -0.000000 -0.000000 1.000000
usemtl Material
s off
f 1//1 4//1 3//1
f 1//1 3//1 2//1
f 5//2 6//2 7//2
f 5//2 7//2 8//2
f 2//3 3//3 7//3
f 2//3 7//3 6//3
f 4//4 1//4 5//4
f 4//4 5//4 8//4
